<svg width="65" height="61" viewBox="0 0 65 61" fill="none" xmlns="http://www.w3.org/2000/svg">
<path d="M7.76201 58.3273C9.10872 51.5895 10.3723 44.6911 12.0372 38.0841C13 34.2632 13.8735 30.3817 14.9 26.6075C15.6309 23.9202 16.4311 21.3076 17.1591 18.6167C18.5716 13.3961 19.7642 7.98535 21.221 2.85787" stroke="black" stroke-linecap="round"/>
<path d="M20.8721 2.79214C19.0396 3.81561 17.2072 4.87733 15.3163 5.80276C14.9532 5.98046 14.5451 6.09207 14.2015 6.30318C13.7059 6.60769 13.253 6.94183 12.7206 7.20996C11.7401 7.70382 9.13203 9.69122 10.0478 9.09578" stroke="black" stroke-linecap="round"/>
<path d="M21.4209 2.89453C22.2667 5.84518 23.0661 8.80486 23.8294 11.789C24.081 12.7725 24.2563 13.7634 24.5552 14.7394C24.6845 15.1616 24.834 15.6529 24.8433 16.0923" stroke="black" stroke-linecap="round"/>
<path d="M55.8036 57.9289C53.7701 51.3657 51.5869 44.701 49.8954 38.1007C48.9172 34.2838 47.8316 30.4562 46.9316 26.6498C46.2908 23.9396 45.7466 21.262 45.1016 18.55C43.8502 13.2884 42.3149 7.96476 41.1469 2.76388" stroke="black" stroke-linecap="round"/>
<path d="M40.8094 2.8728C39.6878 4.647 38.5846 6.45475 37.365 8.17066C37.1308 8.50015 36.8255 8.79305 36.6244 9.14259C36.3343 9.64677 36.0959 10.1566 35.7561 10.6464C35.1303 11.5485 33.7875 14.5399 34.3079 13.5795" stroke="black" stroke-linecap="round"/>
<path d="M41.3408 2.70117C43.4927 4.89002 45.6082 7.10894 47.7036 9.3666C48.3942 10.1106 49.0213 10.8976 49.7499 11.6125C50.0651 11.9217 50.431 12.282 50.649 12.6637" stroke="black" stroke-linecap="round"/>
</svg>
