<svg width="80" height="80" viewBox="0 0 80 80" fill="none" xmlns="http://www.w3.org/2000/svg">
<path d="M64.976 64.2688L41.7805 69.8638L17.5469 55.7952L8.99609 20.3454L51.886 10L64.976 64.2688Z" fill="white"/>
<path d="M42.2408 70L37.7015 51.181L17.9105 55.9547M64.976 64.2688L51.886 10L8.99609 20.3454L17.5469 55.7952L41.7805 69.8638L64.976 64.2688Z" stroke="black" stroke-width="2" stroke-linejoin="round"/>
<path d="M48.9436 56.49L47.208 49.0684L55.3367 52.3402L48.9436 56.49Z" fill="white" stroke="black" stroke-width="2" stroke-linejoin="round"/>
<rect x="60.8193" y="15.2539" width="8.76243" height="36.2868" transform="rotate(21.9249 60.8193 15.2539)" fill="white" stroke="black" stroke-width="2" stroke-linejoin="round"/>
<path d="M61.2381 14.2108C62.1416 11.9662 64.6937 10.8789 66.9384 11.7824V11.7824C69.183 12.6859 70.2703 15.238 69.3668 17.4826L67.8271 21.3079L59.6984 18.0361L61.2381 14.2108Z" fill="white" stroke="black" stroke-width="2" stroke-linejoin="round"/>
</svg>
