<svg width="122" height="124" viewBox="0 0 122 124" fill="none" xmlns="http://www.w3.org/2000/svg">
<rect x="3" y="3" width="50" height="50" fill="#FFD12E"/>
<rect y="5" width="3" height="46" fill="#FFD12E"/>
<rect x="53" y="5" width="3" height="46" fill="#FFD12E"/>
<rect x="51" width="3" height="46" transform="rotate(90 51 0)" fill="#FFD12E"/>
<rect x="51" y="53" width="3" height="46" transform="rotate(90 51 53)" fill="#FFD12E"/>
<rect x="18" y="17" width="6" height="10" fill="black"/>
<rect x="39" y="17" width="6" height="10" fill="black"/>
<rect x="29" y="31" width="9" height="10" transform="rotate(-90 29 31)" fill="#F47521"/>
<rect x="29" y="40" width="9" height="10" transform="rotate(-90 29 40)" fill="#F47521"/>
<rect x="25" y="26" width="4" height="10" fill="#F47521"/>
<rect x="39" y="24" width="4" height="6" fill="#F47521"/>
<rect x="39" y="32" width="4" height="6" fill="#F47521"/>
<rect width="50" height="50" transform="matrix(-1 0 0 1 119 71)" fill="#FFD12E"/>
<rect width="3" height="46" transform="matrix(-1 0 0 1 122 73)" fill="#FFD12E"/>
<rect width="3" height="46" transform="matrix(-1 0 0 1 69 73)" fill="#FFD12E"/>
<rect width="3" height="46" transform="matrix(4.37114e-08 1 1 -4.37114e-08 71 68)" fill="#FFD12E"/>
<rect width="3" height="46" transform="matrix(4.37114e-08 1 1 -4.37114e-08 71 121)" fill="#FFD12E"/>
<rect width="6" height="10" transform="matrix(-1 0 0 1 104 85)" fill="black"/>
<rect width="6" height="10" transform="matrix(-1 0 0 1 83 85)" fill="black"/>
<rect width="9" height="10" transform="matrix(2.91409e-08 -1 -1 -6.55671e-08 93 99)" fill="#F47521"/>
<rect width="9" height="10" transform="matrix(2.91409e-08 -1 -1 -6.55671e-08 93 108)" fill="#F47521"/>
<rect width="4" height="10" transform="matrix(-1 0 0 1 97 94)" fill="#F47521"/>
<rect width="4" height="6" transform="matrix(-1 0 0 1 83 92)" fill="#F47521"/>
<rect width="4" height="6" transform="matrix(-1 0 0 1 83 100)" fill="#F47521"/>
<path d="M119 3H69V53H119V3Z" fill="#FFD12E"/>
<path d="M122 5H119V51H122V5Z" fill="#FFD12E"/>
<path d="M69 5H66V51H69V5Z" fill="#FFD12E"/>
<path d="M71 2.01073e-06V3L117 3V0L71 2.01073e-06Z" fill="#FFD12E"/>
<path d="M71 53V56L117 56V53L71 53Z" fill="#FFD12E"/>
<rect width="6" height="10" transform="matrix(-1 0 0 1 104 17)" fill="black"/>
<rect width="6" height="10" transform="matrix(-1 0 0 1 83 17)" fill="black"/>
<rect width="9" height="10" transform="matrix(2.91409e-08 -1 -1 -6.55671e-08 93 31)" fill="#F47521"/>
<rect width="9" height="10" transform="matrix(2.91409e-08 -1 -1 -6.55671e-08 93 40)" fill="#F47521"/>
<rect width="4" height="10" transform="matrix(-1 0 0 1 97 26)" fill="#F47521"/>
<rect width="4" height="6" transform="matrix(-1 0 0 1 83 24)" fill="#F47521"/>
<rect width="4" height="6" transform="matrix(-1 0 0 1 83 32)" fill="#F47521"/>
<rect x="3" y="71" width="50" height="50" fill="#FFD12E"/>
<rect y="73" width="3" height="46" fill="#FFD12E"/>
<rect x="53" y="73" width="3" height="46" fill="#FFD12E"/>
<rect x="51" y="68" width="3" height="46" transform="rotate(90 51 68)" fill="#FFD12E"/>
<rect x="51" y="121" width="3" height="46" transform="rotate(90 51 121)" fill="#FFD12E"/>
<rect x="18" y="85" width="6" height="10" fill="black"/>
<rect x="39" y="85" width="6" height="10" fill="black"/>
<rect x="29" y="99" width="9" height="10" transform="rotate(-90 29 99)" fill="#F47521"/>
<rect x="29" y="108" width="9" height="10" transform="rotate(-90 29 108)" fill="#F47521"/>
<rect x="25" y="94" width="4" height="10" fill="#F47521"/>
<rect x="39" y="92" width="4" height="6" fill="#F47521"/>
<rect x="39" y="100" width="4" height="6" fill="#F47521"/>
</svg>
